<svg xmlns="http://www.w3.org/2000/svg">
    <!-- arrow-left-solid -->
    <symbol id="arrow-left"
            viewBox="0 0 448 512">
        <path d="M9.4 233.4c-12.5 12.5-12.5 32.8 0 45.3l160 160c12.5 12.5 32.8 12.5 45.3 0s12.5-32.8 0-45.3L109.2 288 416 288c17.7 0 32-14.3 32-32s-14.3-32-32-32l-306.7 0L214.6 118.6c12.5-12.5 12.5-32.8 0-45.3s-32.8-12.5-45.3 0l-160 160z" />
    </symbol>

    <!-- boxes-stacked-solid -->
    <symbol id="boxes-stacked"
            viewBox="0 0 576 512">
        <path d="M248 0L208 0c-26.5 0-48 21.5-48 48l0 112c0 35.3 28.7 64 64 64l128 0c35.3 0 64-28.7 64-64l0-112c0-26.5-21.5-48-48-48L328 0l0 80c0 8.8-7.2 16-16 16l-48 0c-8.8 0-16-7.2-16-16l0-80zM64 256c-35.3 0-64 28.7-64 64L0 448c0 35.3 28.7 64 64 64l160 0c35.3 0 64-28.7 64-64l0-128c0-35.3-28.7-64-64-64l-40 0 0 80c0 8.8-7.2 16-16 16l-48 0c-8.8 0-16-7.2-16-16l0-80-40 0zM352 512l160 0c35.3 0 64-28.7 64-64l0-128c0-35.3-28.7-64-64-64l-40 0 0 80c0 8.8-7.2 16-16 16l-48 0c-8.8 0-16-7.2-16-16l0-80-40 0c-15 0-28.8 5.1-39.7 13.8c4.9 10.4 7.7 22 7.7 34.2l0 160c0 12.2-2.8 23.8-7.7 34.2C323.2 506.9 337 512 352 512z" />
    </symbol>

    <!-- ellipsis-vertical-solid -->
    <symbol id="ellipsis-vertical"
            viewBox="0 0 128 512">
        <path d="M64 360a56 56 0 1 0 0 112 56 56 0 1 0 0-112zm0-160a56 56 0 1 0 0 112 56 56 0 1 0 0-112zM120 96A56 56 0 1 0 8 96a56 56 0 1 0 112 0z" />
    </symbol>

    <!-- external-link-solid -->
    <symbol id="external-link"
            viewBox="0 0 512 512">
            <path d="M352 0c-12.9 0-24.6 7.8-29.6 19.8s-2.2 25.7 6.9 34.9L370.7 96 201.4 265.4c-12.5 12.5-12.5 32.8 0 45.3s32.8 12.5 45.3 0L416 141.3l41.4 41.4c9.2 9.2 22.9 11.9 34.9 6.9s19.8-16.6 19.8-29.6l0-128c0-17.7-14.3-32-32-32L352 0zM80 32C35.8 32 0 67.8 0 112L0 432c0 44.2 35.8 80 80 80l320 0c44.2 0 80-35.8 80-80l0-112c0-17.7-14.3-32-32-32s-32 14.3-32 32l0 112c0 8.8-7.2 16-16 16L80 448c-8.8 0-16-7.2-16-16l0-320c0-8.8 7.2-16 16-16l112 0c17.7 0 32-14.3 32-32s-14.3-32-32-32L80 32z"/>
    </symbol>

    <!-- file-solid -->
    <symbol id="file"
            viewBox="0 0 384 512">
            <path d="M0 64C0 28.7 28.7 0 64 0L224 0l0 128c0 17.7 14.3 32 32 32l128 0 0 288c0 35.3-28.7 64-64 64L64 512c-35.3 0-64-28.7-64-64L0 64zm384 64l-128 0L256 0 384 128z"/>
    </symbol>

    <!-- folder-solid -->
    <symbol id="folder"
            viewBox="0 0 512 512">
            <path d="M464 128H272l-64-64H48C21.5 64 0 85.5 0 112v288c0 26.5 21.5 48 48 48h416c26.5 0 48-21.5 48-48V176c0-26.5-21.5-48-48-48z"/>
    </symbol>

    <!-- hashtag-solid -->
    <symbol id="hashtag"
            viewBox="0 0 448 512">
            <path d="M181.3 32.4c17.4 2.9 29.2 19.4 26.3 36.8L197.8 128l95.1 0 11.5-69.3c2.9-17.4 19.4-29.2 36.8-26.3s29.2 19.4 26.3 36.8L357.8 128l58.2 0c17.7 0 32 14.3 32 32s-14.3 32-32 32l-68.9 0L325.8 320l58.2 0c17.7 0 32 14.3 32 32s-14.3 32-32 32l-68.9 0-11.5 69.3c-2.9 17.4-19.4 29.2-36.8 26.3s-29.2-19.4-26.3-36.8l9.8-58.7-95.1 0-11.5 69.3c-2.9 17.4-19.4 29.2-36.8 26.3s-29.2-19.4-26.3-36.8L90.2 384 32 384c-17.7 0-32-14.3-32-32s14.3-32 32-32l68.9 0 21.3-128L64 192c-17.7 0-32-14.3-32-32s14.3-32 32-32l68.9 0 11.5-69.3c2.9-17.4 19.4-29.2 36.8-26.3zM187.1 192L165.8 320l95.1 0 21.3-128-95.1 0z"/>
    </symbol>

    <!-- layer-group-solid -->
    <symbol id="layer-group"
            viewBox="0 0 576 512">
            <path d="M264.5 5.2c14.9-6.9 32.1-6.9 47 0l218.6 101c8.5 3.9 13.9 12.4 13.9 21.8s-5.4 17.9-13.9 21.8l-218.6 101c-14.9 6.9-32.1 6.9-47 0L45.9 149.8C37.4 145.8 32 137.3 32 128s5.4-17.9 13.9-21.8L264.5 5.2zM476.9 209.6l53.2 24.6c8.5 3.9 13.9 12.4 13.9 21.8s-5.4 17.9-13.9 21.8l-218.6 101c-14.9 6.9-32.1 6.9-47 0L45.9 277.8C37.4 273.8 32 265.3 32 256s5.4-17.9 13.9-21.8l53.2-24.6 152 70.2c23.4 10.8 50.4 10.8 73.8 0l152-70.2zm-152 198.2l152-70.2 53.2 24.6c8.5 3.9 13.9 12.4 13.9 21.8s-5.4 17.9-13.9 21.8l-218.6 101c-14.9 6.9-32.1 6.9-47 0L45.9 405.8C37.4 401.8 32 393.3 32 384s5.4-17.9 13.9-21.8l53.2-24.6 152 70.2c23.4 10.8 50.4 10.8 73.8 0z"/>
    </symbol>

    <!-- pen-solid -->
    <symbol id="pen"
            viewBox="0 0 512 512">
            <path d="M362.7 19.3L314.3 67.7 444.3 197.7l48.4-48.4c25-25 25-65.5 0-90.5L453.3 19.3c-25-25-65.5-25-90.5 0zm-71 71L58.6 323.5c-10.4 10.4-18 23.3-22.2 37.4L1 481.2C-1.5 489.7 .8 498.8 7 505s15.3 8.5 23.7 6.1l120.3-35.4c14.1-4.2 27-11.8 37.4-22.2L421.7 220.3 291.7 90.3z"/>
    </symbol>

    <!-- pen-to-square-solid -->
    <symbol id="pen-to-square"
            viewBox="0 0 512 512">
            <path d="M471.6 21.7c-21.9-21.9-57.3-21.9-79.2 0L362.3 51.7l97.9 97.9 30.1-30.1c21.9-21.9 21.9-57.3 0-79.2L471.6 21.7zm-299.2 220c-6.1 6.1-10.8 13.6-13.5 21.9l-29.6 88.8c-2.9 8.6-.6 18.1 5.8 24.6s15.9 8.7 24.6 5.8l88.8-29.6c8.2-2.7 15.7-7.4 21.9-13.5L437.7 172.3 339.7 74.3 172.4 241.7zM96 64C43 64 0 107 0 160L0 416c0 53 43 96 96 96l256 0c53 0 96-43 96-96l0-96c0-17.7-14.3-32-32-32s-32 14.3-32 32l0 96c0 17.7-14.3 32-32 32L96 448c-17.7 0-32-14.3-32-32l0-256c0-17.7 14.3-32 32-32l96 0c17.7 0 32-14.3 32-32s-14.3-32-32-32L96 64z" />
    </symbol>

    <!-- search-solid -->
    <symbol id="search"
            viewBox="0 0 512 512">
            <path d="M416 208c0 45.9-14.9 88.3-40 122.7L502.6 457.4c12.5 12.5 12.5 32.8 0 45.3s-32.8 12.5-45.3 0L330.7 376c-34.4 25.2-76.8 40-122.7 40C93.1 416 0 322.9 0 208S93.1 0 208 0S416 93.1 416 208zM208 352a144 144 0 1 0 0-288 144 144 0 1 0 0 288z"/>
    </symbol>

    <!-- shapes-solid -->
    <symbol id="shapes"
            viewBox="0 0 512 512">
            <path d="M315.4 15.5C309.7 5.9 299.2 0 288 0s-21.7 5.9-27.4 15.5l-96 160c-5.9 9.9-6.1 22.2-.4 32.2s16.3 16.2 27.8 16.2l192 0c11.5 0 22.2-6.2 27.8-16.2s5.5-22.3-.4-32.2l-96-160zM288 312l0 144c0 22.1 17.9 40 40 40l144 0c22.1 0 40-17.9 40-40l0-144c0-22.1-17.9-40-40-40l-144 0c-22.1 0-40 17.9-40 40zM128 512a128 128 0 1 0 0-256 128 128 0 1 0 0 256z"/>
    </symbol>

    <!-- trash-solid -->
    <symbol id="trash"
            viewBox="0 0 448 512">
            <path d="M135.2 17.7L128 32 32 32C14.3 32 0 46.3 0 64S14.3 96 32 96l384 0c17.7 0 32-14.3 32-32s-14.3-32-32-32l-96 0-7.2-14.3C307.4 6.8 296.3 0 284.2 0L163.8 0c-12.1 0-23.2 6.8-28.6 17.7zM416 128L32 128 53.2 467c1.6 25.3 22.6 45 47.9 45l245.8 0c25.3 0 46.3-19.7 47.9-45L416 128z"/>
    </symbol>
</svg>